<mxfile host="app.diagrams.net" agent="Mozilla/5.0 (Windows NT 10.0; Win64; x64; rv:136.0) Gecko/20100101 Firefox/136.0" version="26.1.0">
  <diagram name="Page-1" id="Fxvs6_2vzgaV6nxuDcLv">
    <mxGraphModel grid="1" page="0" gridSize="10" guides="1" tooltips="1" connect="1" arrows="1" fold="1" pageScale="1" pageWidth="1920" pageHeight="1200" math="0" shadow="0">
      <root>
        <mxCell id="0" />
        <mxCell id="1" parent="0" />
        <mxCell id="xccdPtJi3zhg2thprEUX-1" value="" style="rounded=0;whiteSpace=wrap;html=1;" vertex="1" parent="1">
          <mxGeometry x="-200" y="40" width="800" height="450" as="geometry" />
        </mxCell>
        <mxCell id="xccdPtJi3zhg2thprEUX-2" value="Game Window" style="rounded=0;whiteSpace=wrap;html=1;" vertex="1" parent="1">
          <mxGeometry x="-140" y="100" width="680" height="310" as="geometry" />
        </mxCell>
        <mxCell id="xccdPtJi3zhg2thprEUX-5" value="" style="rounded=1;whiteSpace=wrap;html=1;" vertex="1" parent="1">
          <mxGeometry x="160" y="50" width="80" height="40" as="geometry" />
        </mxCell>
        <mxCell id="-m1Y3LQutJfAbKT5JXmw-1" value="" style="rounded=1;whiteSpace=wrap;html=1;" vertex="1" parent="1">
          <mxGeometry x="-150" y="410" width="700" height="70" as="geometry" />
        </mxCell>
        <mxCell id="-m1Y3LQutJfAbKT5JXmw-2" value="Item 1" style="rounded=0;whiteSpace=wrap;html=1;" vertex="1" parent="1">
          <mxGeometry x="-140" y="420" width="50" height="50" as="geometry" />
        </mxCell>
        <mxCell id="-m1Y3LQutJfAbKT5JXmw-4" value="Item 2" style="rounded=0;whiteSpace=wrap;html=1;" vertex="1" parent="1">
          <mxGeometry x="-70" y="420" width="50" height="50" as="geometry" />
        </mxCell>
        <mxCell id="-m1Y3LQutJfAbKT5JXmw-6" value="..." style="rounded=0;whiteSpace=wrap;html=1;" vertex="1" parent="1">
          <mxGeometry y="420" width="50" height="50" as="geometry" />
        </mxCell>
        <mxCell id="-m1Y3LQutJfAbKT5JXmw-7" value="..." style="rounded=0;whiteSpace=wrap;html=1;" vertex="1" parent="1">
          <mxGeometry x="70" y="420" width="50" height="50" as="geometry" />
        </mxCell>
        <mxCell id="-m1Y3LQutJfAbKT5JXmw-9" value="..." style="rounded=0;whiteSpace=wrap;html=1;" vertex="1" parent="1">
          <mxGeometry x="210" y="420" width="50" height="50" as="geometry" />
        </mxCell>
        <mxCell id="-m1Y3LQutJfAbKT5JXmw-10" value="..." style="rounded=0;whiteSpace=wrap;html=1;" vertex="1" parent="1">
          <mxGeometry x="280" y="420" width="50" height="50" as="geometry" />
        </mxCell>
        <mxCell id="-m1Y3LQutJfAbKT5JXmw-11" value="..." style="rounded=0;whiteSpace=wrap;html=1;" vertex="1" parent="1">
          <mxGeometry x="350" y="420" width="50" height="50" as="geometry" />
        </mxCell>
        <mxCell id="-m1Y3LQutJfAbKT5JXmw-13" value="Empty Slot" style="rounded=0;whiteSpace=wrap;html=1;" vertex="1" parent="1">
          <mxGeometry x="420" y="420" width="50" height="50" as="geometry" />
        </mxCell>
        <mxCell id="-m1Y3LQutJfAbKT5JXmw-14" value="Empty Slot" style="rounded=0;whiteSpace=wrap;html=1;" vertex="1" parent="1">
          <mxGeometry x="490" y="420" width="50" height="50" as="geometry" />
        </mxCell>
        <mxCell id="-m1Y3LQutJfAbKT5JXmw-17" value="Hint" style="rounded=1;whiteSpace=wrap;html=1;" vertex="1" parent="1">
          <mxGeometry x="267" y="60" width="45" height="20" as="geometry" />
        </mxCell>
        <mxCell id="-m1Y3LQutJfAbKT5JXmw-20" value="Home" style="rounded=1;whiteSpace=wrap;html=1;" vertex="1" parent="1">
          <mxGeometry x="-130" y="60.5" width="45" height="20" as="geometry" />
        </mxCell>
        <mxCell id="-m1Y3LQutJfAbKT5JXmw-22" value="Tutorial" style="rounded=1;whiteSpace=wrap;html=1;" vertex="1" parent="1">
          <mxGeometry x="490" y="60.5" width="45" height="20" as="geometry" />
        </mxCell>
        <mxCell id="-m1Y3LQutJfAbKT5JXmw-24" value="..." style="rounded=0;whiteSpace=wrap;html=1;" vertex="1" parent="1">
          <mxGeometry x="140" y="420" width="50" height="50" as="geometry" />
        </mxCell>
        <mxCell id="-m1Y3LQutJfAbKT5JXmw-25" value="" style="html=1;shadow=0;dashed=0;align=center;verticalAlign=middle;shape=mxgraph.arrows2.arrow;dy=0.6;dx=40;flipH=1;notch=0;" vertex="1" parent="1">
          <mxGeometry x="-195" y="245" width="50" height="40" as="geometry" />
        </mxCell>
        <mxCell id="-m1Y3LQutJfAbKT5JXmw-26" value="" style="html=1;shadow=0;dashed=0;align=center;verticalAlign=middle;shape=mxgraph.arrows2.arrow;dy=0.6;dx=40;notch=0;" vertex="1" parent="1">
          <mxGeometry x="546" y="245" width="50" height="40" as="geometry" />
        </mxCell>
        <mxCell id="-m1Y3LQutJfAbKT5JXmw-27" value="Timer" style="rounded=0;whiteSpace=wrap;html=1;" vertex="1" parent="1">
          <mxGeometry x="90" y="60" width="45" height="20" as="geometry" />
        </mxCell>
        <mxCell id="-m1Y3LQutJfAbKT5JXmw-33" value="" style="shape=image;html=1;verticalAlign=top;verticalLabelPosition=bottom;labelBackgroundColor=#ffffff;imageAspect=0;aspect=fixed;image=https://cdn2.iconfinder.com/data/icons/css-vol-2/24/play-pause-128.png" vertex="1" parent="1">
          <mxGeometry x="170.5" y="41" width="59" height="59" as="geometry" />
        </mxCell>
        <mxCell id="-m1Y3LQutJfAbKT5JXmw-34" value="" style="sketch=0;aspect=fixed;pointerEvents=1;shadow=0;dashed=0;html=1;strokeColor=none;labelPosition=center;verticalLabelPosition=bottom;verticalAlign=top;align=center;fillColor=#000000;shape=mxgraph.mscae.enterprise.lock" vertex="1" parent="1">
          <mxGeometry x="552" y="259.25" width="8.97" height="11.5" as="geometry" />
        </mxCell>
        <mxCell id="-m1Y3LQutJfAbKT5JXmw-35" value="&lt;span style=&quot;background-color: light-dark(#ffffff, var(--ge-dark-color, #121212));&quot;&gt;Inventory&lt;/span&gt;" style="text;html=1;align=center;verticalAlign=middle;whiteSpace=wrap;rounded=0;" vertex="1" parent="1">
          <mxGeometry x="170" y="430" width="60" height="30" as="geometry" />
        </mxCell>
        <mxCell id="-m1Y3LQutJfAbKT5JXmw-36" value="Previous Room" style="text;html=1;align=center;verticalAlign=middle;whiteSpace=wrap;rounded=0;" vertex="1" parent="1">
          <mxGeometry x="-200" y="215" width="60" height="30" as="geometry" />
        </mxCell>
        <mxCell id="-m1Y3LQutJfAbKT5JXmw-37" value="Next Room" style="text;html=1;align=center;verticalAlign=middle;whiteSpace=wrap;rounded=0;" vertex="1" parent="1">
          <mxGeometry x="540" y="215" width="60" height="30" as="geometry" />
        </mxCell>
        <mxCell id="-m1Y3LQutJfAbKT5JXmw-38" value="" style="rounded=0;whiteSpace=wrap;html=1;" vertex="1" parent="1">
          <mxGeometry x="760" y="41" width="800" height="450" as="geometry" />
        </mxCell>
        <mxCell id="-m1Y3LQutJfAbKT5JXmw-39" value="Game Window" style="rounded=0;whiteSpace=wrap;html=1;" vertex="1" parent="1">
          <mxGeometry x="820" y="101" width="680" height="310" as="geometry" />
        </mxCell>
        <mxCell id="-m1Y3LQutJfAbKT5JXmw-40" value="" style="rounded=1;whiteSpace=wrap;html=1;" vertex="1" parent="1">
          <mxGeometry x="1120" y="51" width="80" height="40" as="geometry" />
        </mxCell>
        <mxCell id="-m1Y3LQutJfAbKT5JXmw-41" value="" style="rounded=1;whiteSpace=wrap;html=1;" vertex="1" parent="1">
          <mxGeometry x="810" y="411" width="700" height="70" as="geometry" />
        </mxCell>
        <mxCell id="-m1Y3LQutJfAbKT5JXmw-42" value="Item 1" style="rounded=0;whiteSpace=wrap;html=1;" vertex="1" parent="1">
          <mxGeometry x="820" y="421" width="50" height="50" as="geometry" />
        </mxCell>
        <mxCell id="-m1Y3LQutJfAbKT5JXmw-43" value="Item 2" style="rounded=0;whiteSpace=wrap;html=1;" vertex="1" parent="1">
          <mxGeometry x="890" y="421" width="50" height="50" as="geometry" />
        </mxCell>
        <mxCell id="-m1Y3LQutJfAbKT5JXmw-44" value="..." style="rounded=0;whiteSpace=wrap;html=1;" vertex="1" parent="1">
          <mxGeometry x="960" y="421" width="50" height="50" as="geometry" />
        </mxCell>
        <mxCell id="-m1Y3LQutJfAbKT5JXmw-45" value="..." style="rounded=0;whiteSpace=wrap;html=1;" vertex="1" parent="1">
          <mxGeometry x="1030" y="421" width="50" height="50" as="geometry" />
        </mxCell>
        <mxCell id="-m1Y3LQutJfAbKT5JXmw-46" value="..." style="rounded=0;whiteSpace=wrap;html=1;" vertex="1" parent="1">
          <mxGeometry x="1170" y="421" width="50" height="50" as="geometry" />
        </mxCell>
        <mxCell id="-m1Y3LQutJfAbKT5JXmw-47" value="..." style="rounded=0;whiteSpace=wrap;html=1;" vertex="1" parent="1">
          <mxGeometry x="1240" y="421" width="50" height="50" as="geometry" />
        </mxCell>
        <mxCell id="-m1Y3LQutJfAbKT5JXmw-48" value="..." style="rounded=0;whiteSpace=wrap;html=1;" vertex="1" parent="1">
          <mxGeometry x="1310" y="421" width="50" height="50" as="geometry" />
        </mxCell>
        <mxCell id="-m1Y3LQutJfAbKT5JXmw-49" value="Empty Slot" style="rounded=0;whiteSpace=wrap;html=1;" vertex="1" parent="1">
          <mxGeometry x="1380" y="421" width="50" height="50" as="geometry" />
        </mxCell>
        <mxCell id="-m1Y3LQutJfAbKT5JXmw-50" value="Empty Slot" style="rounded=0;whiteSpace=wrap;html=1;" vertex="1" parent="1">
          <mxGeometry x="1450" y="421" width="50" height="50" as="geometry" />
        </mxCell>
        <mxCell id="-m1Y3LQutJfAbKT5JXmw-51" value="Hint" style="rounded=1;whiteSpace=wrap;html=1;" vertex="1" parent="1">
          <mxGeometry x="1227" y="61" width="45" height="20" as="geometry" />
        </mxCell>
        <mxCell id="-m1Y3LQutJfAbKT5JXmw-52" value="Home" style="rounded=1;whiteSpace=wrap;html=1;" vertex="1" parent="1">
          <mxGeometry x="830" y="61.5" width="45" height="20" as="geometry" />
        </mxCell>
        <mxCell id="-m1Y3LQutJfAbKT5JXmw-53" value="Tutorial" style="rounded=1;whiteSpace=wrap;html=1;" vertex="1" parent="1">
          <mxGeometry x="1450" y="61.5" width="45" height="20" as="geometry" />
        </mxCell>
        <mxCell id="-m1Y3LQutJfAbKT5JXmw-54" value="..." style="rounded=0;whiteSpace=wrap;html=1;" vertex="1" parent="1">
          <mxGeometry x="1100" y="421" width="50" height="50" as="geometry" />
        </mxCell>
        <mxCell id="-m1Y3LQutJfAbKT5JXmw-55" value="" style="html=1;shadow=0;dashed=0;align=center;verticalAlign=middle;shape=mxgraph.arrows2.arrow;dy=0.6;dx=40;flipH=1;notch=0;" vertex="1" parent="1">
          <mxGeometry x="765" y="246" width="50" height="40" as="geometry" />
        </mxCell>
        <mxCell id="-m1Y3LQutJfAbKT5JXmw-56" value="" style="html=1;shadow=0;dashed=0;align=center;verticalAlign=middle;shape=mxgraph.arrows2.arrow;dy=0.6;dx=40;notch=0;" vertex="1" parent="1">
          <mxGeometry x="1506" y="246" width="50" height="40" as="geometry" />
        </mxCell>
        <mxCell id="-m1Y3LQutJfAbKT5JXmw-57" value="Timer" style="rounded=0;whiteSpace=wrap;html=1;" vertex="1" parent="1">
          <mxGeometry x="1050" y="61" width="45" height="20" as="geometry" />
        </mxCell>
        <mxCell id="-m1Y3LQutJfAbKT5JXmw-58" value="" style="shape=image;html=1;verticalAlign=top;verticalLabelPosition=bottom;labelBackgroundColor=#ffffff;imageAspect=0;aspect=fixed;image=https://cdn2.iconfinder.com/data/icons/css-vol-2/24/play-pause-128.png" vertex="1" parent="1">
          <mxGeometry x="1130.5" y="42" width="59" height="59" as="geometry" />
        </mxCell>
        <mxCell id="-m1Y3LQutJfAbKT5JXmw-59" value="" style="sketch=0;aspect=fixed;pointerEvents=1;shadow=0;dashed=0;html=1;strokeColor=none;labelPosition=center;verticalLabelPosition=bottom;verticalAlign=top;align=center;fillColor=#000000;shape=mxgraph.mscae.enterprise.lock" vertex="1" parent="1">
          <mxGeometry x="1512" y="260.25" width="8.97" height="11.5" as="geometry" />
        </mxCell>
        <mxCell id="-m1Y3LQutJfAbKT5JXmw-60" value="&lt;span style=&quot;background-color: light-dark(#ffffff, var(--ge-dark-color, #121212));&quot;&gt;Inventory&lt;/span&gt;" style="text;html=1;align=center;verticalAlign=middle;whiteSpace=wrap;rounded=0;" vertex="1" parent="1">
          <mxGeometry x="1130" y="431" width="60" height="30" as="geometry" />
        </mxCell>
        <mxCell id="-m1Y3LQutJfAbKT5JXmw-61" value="Previous Room" style="text;html=1;align=center;verticalAlign=middle;whiteSpace=wrap;rounded=0;" vertex="1" parent="1">
          <mxGeometry x="760" y="216" width="60" height="30" as="geometry" />
        </mxCell>
        <mxCell id="-m1Y3LQutJfAbKT5JXmw-62" value="Next Room" style="text;html=1;align=center;verticalAlign=middle;whiteSpace=wrap;rounded=0;" vertex="1" parent="1">
          <mxGeometry x="1500" y="216" width="60" height="30" as="geometry" />
        </mxCell>
        <mxCell id="-m1Y3LQutJfAbKT5JXmw-63" value="" style="rounded=0;whiteSpace=wrap;html=1;" vertex="1" parent="1">
          <mxGeometry x="830" y="110" width="170" height="290" as="geometry" />
        </mxCell>
        <mxCell id="-m1Y3LQutJfAbKT5JXmw-64" value="Puzzle/Riddle/Minigame" style="rounded=0;whiteSpace=wrap;html=1;" vertex="1" parent="1">
          <mxGeometry x="1009.5" y="110" width="480" height="290" as="geometry" />
        </mxCell>
        <mxCell id="-m1Y3LQutJfAbKT5JXmw-65" value="" style="shape=mxgraph.sysml.x;" vertex="1" parent="1">
          <mxGeometry x="980" y="120" width="10" height="10" as="geometry" />
        </mxCell>
        <mxCell id="-m1Y3LQutJfAbKT5JXmw-66" value="" style="shape=mxgraph.sysml.x;" vertex="1" parent="1">
          <mxGeometry x="1467.5" y="120" width="10" height="10" as="geometry" />
        </mxCell>
        <mxCell id="-m1Y3LQutJfAbKT5JXmw-67" value="Item" style="rounded=0;whiteSpace=wrap;html=1;" vertex="1" parent="1">
          <mxGeometry x="852.5" y="145.75" width="125" height="125" as="geometry" />
        </mxCell>
        <mxCell id="-m1Y3LQutJfAbKT5JXmw-69" value="Item Information" style="rounded=0;whiteSpace=wrap;html=1;" vertex="1" parent="1">
          <mxGeometry x="852.5" y="295" width="125" height="85" as="geometry" />
        </mxCell>
        <mxCell id="-m1Y3LQutJfAbKT5JXmw-70" value="Inventory Item" style="text;html=1;align=center;verticalAlign=middle;whiteSpace=wrap;rounded=0;" vertex="1" parent="1">
          <mxGeometry x="850" y="115.75" width="130" height="30" as="geometry" />
        </mxCell>
        <mxCell id="-m1Y3LQutJfAbKT5JXmw-71" value="" style="rounded=0;whiteSpace=wrap;html=1;" vertex="1" parent="1">
          <mxGeometry x="1720" y="42" width="800" height="450" as="geometry" />
        </mxCell>
        <mxCell id="-m1Y3LQutJfAbKT5JXmw-73" value="Home" style="rounded=1;whiteSpace=wrap;html=1;" vertex="1" parent="1">
          <mxGeometry x="2080.5" y="52" width="80" height="40" as="geometry" />
        </mxCell>
        <mxCell id="-m1Y3LQutJfAbKT5JXmw-75" value="&lt;div&gt;Room 1&lt;/div&gt;&lt;div&gt;.&lt;/div&gt;" style="rounded=0;whiteSpace=wrap;html=1;" vertex="1" parent="1">
          <mxGeometry x="1780" y="411" width="60" height="60" as="geometry" />
        </mxCell>
        <mxCell id="-m1Y3LQutJfAbKT5JXmw-85" value="Leaderboard" style="rounded=1;whiteSpace=wrap;html=1;" vertex="1" parent="1">
          <mxGeometry x="1787.5" y="62" width="80" height="20" as="geometry" />
        </mxCell>
        <mxCell id="-m1Y3LQutJfAbKT5JXmw-86" value="Select User" style="rounded=1;whiteSpace=wrap;html=1;" vertex="1" parent="1">
          <mxGeometry x="2372.5" y="62" width="80" height="20" as="geometry" />
        </mxCell>
        <mxCell id="-m1Y3LQutJfAbKT5JXmw-96" value="" style="rounded=0;whiteSpace=wrap;html=1;" vertex="1" parent="1">
          <mxGeometry x="1780" y="100" width="190" height="290" as="geometry" />
        </mxCell>
        <mxCell id="-m1Y3LQutJfAbKT5JXmw-97" value="" style="rounded=0;whiteSpace=wrap;html=1;" vertex="1" parent="1">
          <mxGeometry x="1980" y="100" width="480" height="290" as="geometry" />
        </mxCell>
        <mxCell id="-m1Y3LQutJfAbKT5JXmw-100" value="Achievement 1" style="rounded=0;whiteSpace=wrap;html=1;" vertex="1" parent="1">
          <mxGeometry x="1790" y="130" width="170" height="33.25" as="geometry" />
        </mxCell>
        <mxCell id="-m1Y3LQutJfAbKT5JXmw-102" value="Achievements" style="text;html=1;align=center;verticalAlign=middle;whiteSpace=wrap;rounded=0;" vertex="1" parent="1">
          <mxGeometry x="1810" y="100" width="130" height="30" as="geometry" />
        </mxCell>
        <mxCell id="-m1Y3LQutJfAbKT5JXmw-103" value="?" style="rounded=0;whiteSpace=wrap;html=1;aspect=fixed;" vertex="1" parent="1">
          <mxGeometry x="2400" y="411" width="60" height="60" as="geometry" />
        </mxCell>
        <mxCell id="-m1Y3LQutJfAbKT5JXmw-104" value="&lt;div&gt;Room 4&lt;/div&gt;&lt;div&gt;.&lt;/div&gt;" style="rounded=0;whiteSpace=wrap;html=1;aspect=fixed;" vertex="1" parent="1">
          <mxGeometry x="2046" y="411" width="60" height="60" as="geometry" />
        </mxCell>
        <mxCell id="-m1Y3LQutJfAbKT5JXmw-105" value="?" style="rounded=0;whiteSpace=wrap;html=1;aspect=fixed;" vertex="1" parent="1">
          <mxGeometry x="2311" y="411" width="60" height="60" as="geometry" />
        </mxCell>
        <mxCell id="-m1Y3LQutJfAbKT5JXmw-106" value="?" style="rounded=0;whiteSpace=wrap;html=1;aspect=fixed;" vertex="1" parent="1">
          <mxGeometry x="2223" y="411" width="60" height="60" as="geometry" />
        </mxCell>
        <mxCell id="-m1Y3LQutJfAbKT5JXmw-107" value="&lt;div&gt;Room 2&lt;/div&gt;&lt;div&gt;.&lt;/div&gt;" style="rounded=0;whiteSpace=wrap;html=1;aspect=fixed;" vertex="1" parent="1">
          <mxGeometry x="1869" y="411" width="60" height="60" as="geometry" />
        </mxCell>
        <mxCell id="-m1Y3LQutJfAbKT5JXmw-108" value="&lt;div&gt;Room 3&lt;/div&gt;&lt;div&gt;.&lt;/div&gt;" style="rounded=0;whiteSpace=wrap;html=1;aspect=fixed;" vertex="1" parent="1">
          <mxGeometry x="1957" y="411" width="60" height="60" as="geometry" />
        </mxCell>
        <mxCell id="-m1Y3LQutJfAbKT5JXmw-109" value="" style="sketch=0;aspect=fixed;pointerEvents=1;shadow=0;dashed=0;html=1;strokeColor=none;labelPosition=center;verticalLabelPosition=bottom;verticalAlign=top;align=center;fillColor=#000000;shape=mxgraph.mscae.enterprise.lock" vertex="1" parent="1">
          <mxGeometry x="2068.2" y="443" width="15.6" height="20" as="geometry" />
        </mxCell>
        <mxCell id="-m1Y3LQutJfAbKT5JXmw-112" value="" style="sketch=0;aspect=fixed;pointerEvents=1;shadow=0;dashed=0;html=1;strokeColor=none;labelPosition=center;verticalLabelPosition=bottom;verticalAlign=top;align=center;fillColor=#000000;shape=mxgraph.mscae.enterprise.lock_unlocked" vertex="1" parent="1">
          <mxGeometry x="1802.6" y="442" width="14.8" height="20" as="geometry" />
        </mxCell>
        <mxCell id="-m1Y3LQutJfAbKT5JXmw-113" value="" style="sketch=0;aspect=fixed;pointerEvents=1;shadow=0;dashed=0;html=1;strokeColor=none;labelPosition=center;verticalLabelPosition=bottom;verticalAlign=top;align=center;fillColor=#000000;shape=mxgraph.mscae.enterprise.lock_unlocked" vertex="1" parent="1">
          <mxGeometry x="1891.6" y="442" width="14.8" height="20" as="geometry" />
        </mxCell>
        <mxCell id="-m1Y3LQutJfAbKT5JXmw-114" value="&lt;font style=&quot;font-size: 7px;&quot;&gt;63%&lt;/font&gt;" style="text;html=1;align=center;verticalAlign=middle;whiteSpace=wrap;rounded=0;" vertex="1" parent="1">
          <mxGeometry x="1840" y="393.74" width="13.7" height="10" as="geometry" />
        </mxCell>
        <mxCell id="-m1Y3LQutJfAbKT5JXmw-119" value="" style="verticalLabelPosition=bottom;verticalAlign=top;html=1;shadow=0;dashed=0;strokeWidth=1;shape=mxgraph.android.progressBar;strokeColor=#82b366;dx1=0;dx2=0.63;strokeWidth=2;aspect=fixed;fillColor=#d5e8d4;" vertex="1" parent="1">
          <mxGeometry x="1782.5" y="401" width="55" height="1.49" as="geometry" />
        </mxCell>
        <mxCell id="-m1Y3LQutJfAbKT5JXmw-121" value="?" style="rounded=0;whiteSpace=wrap;html=1;aspect=fixed;" vertex="1" parent="1">
          <mxGeometry x="2134" y="411" width="60" height="60" as="geometry" />
        </mxCell>
        <mxCell id="-m1Y3LQutJfAbKT5JXmw-126" value="" style="verticalLabelPosition=bottom;verticalAlign=top;html=1;shadow=0;dashed=0;strokeWidth=1;shape=mxgraph.android.progressBar;strokeColor=#82B366;dx1=0;dx2=0.87;strokeWidth=2;aspect=fixed;fillColor=#d5e8d4;" vertex="1" parent="1">
          <mxGeometry x="1871.5" y="401" width="55" height="1.49" as="geometry" />
        </mxCell>
        <mxCell id="-m1Y3LQutJfAbKT5JXmw-127" value="" style="verticalLabelPosition=bottom;verticalAlign=top;html=1;shadow=0;dashed=0;strokeWidth=1;shape=mxgraph.android.progressBar;strokeColor=#82b366;dx1=0;dx2=0;strokeWidth=2;aspect=fixed;fillColor=#d5e8d4;" vertex="1" parent="1">
          <mxGeometry x="1959.5" y="401" width="55" height="1.49" as="geometry" />
        </mxCell>
        <mxCell id="-m1Y3LQutJfAbKT5JXmw-128" value="" style="verticalLabelPosition=bottom;verticalAlign=top;html=1;shadow=0;dashed=0;strokeWidth=1;shape=mxgraph.android.progressBar;strokeColor=#82b366;dx1=0;dx2=0;strokeWidth=2;aspect=fixed;fillColor=#d5e8d4;" vertex="1" parent="1">
          <mxGeometry x="2048.5" y="401" width="55" height="1.49" as="geometry" />
        </mxCell>
        <mxCell id="-m1Y3LQutJfAbKT5JXmw-129" value="&lt;font style=&quot;font-size: 7px;&quot;&gt;87%&lt;/font&gt;" style="text;html=1;align=center;verticalAlign=middle;whiteSpace=wrap;rounded=0;" vertex="1" parent="1">
          <mxGeometry x="1929" y="393.74" width="13.7" height="10" as="geometry" />
        </mxCell>
        <mxCell id="-m1Y3LQutJfAbKT5JXmw-131" value="&lt;font style=&quot;font-size: 7px;&quot;&gt;0%&lt;/font&gt;" style="text;html=1;align=center;verticalAlign=middle;whiteSpace=wrap;rounded=0;" vertex="1" parent="1">
          <mxGeometry x="2017" y="393.74" width="13.7" height="10" as="geometry" />
        </mxCell>
        <mxCell id="-m1Y3LQutJfAbKT5JXmw-132" value="&lt;font style=&quot;font-size: 7px;&quot;&gt;0%&lt;/font&gt;" style="text;html=1;align=center;verticalAlign=middle;whiteSpace=wrap;rounded=0;" vertex="1" parent="1">
          <mxGeometry x="2106" y="393.74" width="13.7" height="10" as="geometry" />
        </mxCell>
        <mxCell id="-m1Y3LQutJfAbKT5JXmw-133" value="Achievement 2" style="rounded=0;whiteSpace=wrap;html=1;" vertex="1" parent="1">
          <mxGeometry x="1790" y="172" width="170" height="33.25" as="geometry" />
        </mxCell>
        <mxCell id="-m1Y3LQutJfAbKT5JXmw-134" value="..." style="rounded=0;whiteSpace=wrap;html=1;" vertex="1" parent="1">
          <mxGeometry x="1790" y="214" width="170" height="33.25" as="geometry" />
        </mxCell>
        <mxCell id="-m1Y3LQutJfAbKT5JXmw-135" value="..." style="rounded=0;whiteSpace=wrap;html=1;" vertex="1" parent="1">
          <mxGeometry x="1789.5" y="256" width="170" height="33.25" as="geometry" />
        </mxCell>
        <mxCell id="-m1Y3LQutJfAbKT5JXmw-136" value="?" style="rounded=0;whiteSpace=wrap;html=1;" vertex="1" parent="1">
          <mxGeometry x="1790" y="298" width="170" height="33.25" as="geometry" />
        </mxCell>
        <mxCell id="-m1Y3LQutJfAbKT5JXmw-137" value="?" style="rounded=0;whiteSpace=wrap;html=1;" vertex="1" parent="1">
          <mxGeometry x="1790" y="340" width="170" height="33.25" as="geometry" />
        </mxCell>
        <mxCell id="-m1Y3LQutJfAbKT5JXmw-143" value="" style="rounded=0;whiteSpace=wrap;html=1;" vertex="1" parent="1">
          <mxGeometry x="1994.8" y="116.63" width="120" height="143.37" as="geometry" />
        </mxCell>
        <mxCell id="-m1Y3LQutJfAbKT5JXmw-144" value="Times" style="text;html=1;align=center;verticalAlign=middle;whiteSpace=wrap;rounded=0;" vertex="1" parent="1">
          <mxGeometry x="2024.8" y="116.63" width="60" height="30" as="geometry" />
        </mxCell>
        <mxCell id="-m1Y3LQutJfAbKT5JXmw-145" value="&lt;div align=&quot;left&quot;&gt;Room 1&lt;/div&gt;&lt;div align=&quot;left&quot;&gt;Room 2&lt;/div&gt;&lt;div align=&quot;left&quot;&gt;Room 3&lt;/div&gt;&lt;div align=&quot;left&quot;&gt;Room 4&lt;/div&gt;&lt;div align=&quot;left&quot;&gt;&lt;br&gt;&lt;/div&gt;&lt;div align=&quot;left&quot;&gt;&lt;br&gt;&lt;/div&gt;&lt;div align=&quot;left&quot;&gt;&lt;b&gt;Total&lt;/b&gt;&lt;/div&gt;" style="text;html=1;align=left;verticalAlign=middle;whiteSpace=wrap;rounded=0;" vertex="1" parent="1">
          <mxGeometry x="2000.8" y="145.75" width="60" height="104.25" as="geometry" />
        </mxCell>
        <mxCell id="-m1Y3LQutJfAbKT5JXmw-148" value="&lt;div&gt;10:34&lt;/div&gt;&lt;div&gt;12:56&lt;/div&gt;&lt;div&gt;-- : --&lt;/div&gt;&lt;div&gt;-- : --&lt;/div&gt;&lt;div&gt;&lt;br&gt;&lt;/div&gt;&lt;div&gt;&lt;br&gt;&lt;/div&gt;&lt;div&gt;&lt;b&gt;23:30&lt;/b&gt;&lt;/div&gt;" style="text;html=1;align=center;verticalAlign=middle;whiteSpace=wrap;rounded=0;" vertex="1" parent="1">
          <mxGeometry x="2059.7" y="145.75" width="60" height="104.25" as="geometry" />
        </mxCell>
        <mxCell id="-m1Y3LQutJfAbKT5JXmw-149" value="" style="rounded=0;whiteSpace=wrap;html=1;" vertex="1" parent="1">
          <mxGeometry x="2134" y="115.75" width="120" height="144.25" as="geometry" />
        </mxCell>
        <mxCell id="-m1Y3LQutJfAbKT5JXmw-150" value="Scores" style="text;html=1;align=center;verticalAlign=middle;whiteSpace=wrap;rounded=0;" vertex="1" parent="1">
          <mxGeometry x="2164" y="115.75" width="60" height="30" as="geometry" />
        </mxCell>
        <mxCell id="-m1Y3LQutJfAbKT5JXmw-151" value="&lt;div&gt;Room 1&lt;/div&gt;&lt;div&gt;Room 2&lt;/div&gt;&lt;div&gt;Room 3&lt;/div&gt;&lt;div&gt;Room 4&lt;/div&gt;&lt;div&gt;&lt;br&gt;&lt;/div&gt;&lt;div&gt;&lt;br&gt;&lt;/div&gt;&lt;div align=&quot;left&quot;&gt;&lt;b&gt;Total&lt;/b&gt;&lt;/div&gt;" style="text;html=1;align=center;verticalAlign=middle;whiteSpace=wrap;rounded=0;" vertex="1" parent="1">
          <mxGeometry x="2134" y="144.87" width="60" height="105.13" as="geometry" />
        </mxCell>
        <mxCell id="-m1Y3LQutJfAbKT5JXmw-152" value="&lt;div&gt;340&lt;/div&gt;&lt;div&gt;454&lt;/div&gt;&lt;div&gt;/&lt;/div&gt;&lt;div&gt;/&lt;/div&gt;&lt;div&gt;&lt;br&gt;&lt;/div&gt;&lt;div&gt;&lt;br&gt;&lt;/div&gt;&lt;div&gt;&lt;b&gt;794&lt;/b&gt;&lt;/div&gt;" style="text;html=1;align=center;verticalAlign=middle;whiteSpace=wrap;rounded=0;" vertex="1" parent="1">
          <mxGeometry x="2198.9" y="144.87" width="60" height="105.13" as="geometry" />
        </mxCell>
        <mxCell id="-m1Y3LQutJfAbKT5JXmw-153" value="" style="sketch=0;aspect=fixed;pointerEvents=1;shadow=0;dashed=0;html=1;strokeColor=none;labelPosition=center;verticalLabelPosition=bottom;verticalAlign=top;align=center;fillColor=#000000;shape=mxgraph.mscae.enterprise.lock_unlocked" vertex="1" parent="1">
          <mxGeometry x="1979.6" y="442" width="14.8" height="20" as="geometry" />
        </mxCell>
        <mxCell id="-m1Y3LQutJfAbKT5JXmw-154" value="" style="verticalLabelPosition=bottom;shadow=0;dashed=0;align=center;html=1;verticalAlign=top;strokeWidth=1;shape=mxgraph.mockup.graphics.barChart;strokeColor=none;strokeColor2=none;strokeColor3=#666666;fillColor2=#82B366;fillColor3=#dddddd;" vertex="1" parent="1">
          <mxGeometry x="1994.8" y="273.25" width="445.2" height="100" as="geometry" />
        </mxCell>
        <mxCell id="-m1Y3LQutJfAbKT5JXmw-155" value="" style="html=1;verticalLabelPosition=bottom;align=center;labelBackgroundColor=#ffffff;verticalAlign=top;strokeWidth=1;strokeColor=light-dark(#000000, #32a0ff);shadow=0;dashed=0;shape=mxgraph.ios7.icons.pie_chart;aspect=fixed;" vertex="1" parent="1">
          <mxGeometry x="2290" y="123.63" width="130" height="130" as="geometry" />
        </mxCell>
      </root>
    </mxGraphModel>
  </diagram>
</mxfile>